# xmcd
# 
# Track frame offsets:
#     150
#     29688
#     60006
#     92906
# 
# Disc length: 2353
# 
# Revision: 0
# Processed by: cddbd v1.5.2PL0 Copyright (c) Steve Scherf et al.
# Submitted via: fre:ac v1.0.31
# 
DISCID=29092f04
DTITLE=Charles Mingus - Coleção Folha Lendas do Jazz
DYEAR=2017
DGENRE=Jazz
TTITLE0=Solo Dancer
TTITLE1=Duet Solo Dancers
TTITLE2=Group Dancers
TTITLE3=Trio and Group Dancers
EXTD=1963
EXTT0=
EXTT1=
EXTT2=
EXTT3=
PLAYORDER=
